<?xml version="1.0"?><svg width="744.09448819" height="1052.3622047" xmlns="http://www.w3.org/2000/svg">

 <metadata id="metadata12390">image/svg+xmlOther map symbolsMohamed IbrahimPublic Domainclker.comother map symbols</metadata>
 <g>
  <title>Layer 1</title>
  <path fill="#231f20" fill-rule="nonzero" id="path2534" d="m259.326508,368.759644c0,30.474243 -24.80603,55.341217 -55.402161,55.341217c-30.535187,0 -55.341217,-24.866974 -55.341217,-55.341217c0,-30.59613 24.80603,-55.402161 55.341217,-55.402161c30.59613,0 55.402161,24.80603 55.402161,55.402161"/>
  <path fill="#231f20" fill-rule="nonzero" id="path2536" d="m295.529907,351.99881l0,33.460724l280.911499,20.783447l0,-75.027588l-280.911499,20.783417z"/>
  <path fill="#231f20" fill-rule="nonzero" id="path2538" d="m235.373749,281.115753l28.889587,16.760834l114.644073,-156.759476l-64.849182,-37.483315l-78.684479,177.481956z"/>
  <path fill="#231f20" fill-rule="nonzero" id="path2540" d="m274.990265,308.542572l16.69989,29.011475l208.078064,-96.420502l-37.54425,-64.971069l-187.233704,132.380096z"/>
  <path fill="#231f20" fill-rule="nonzero" id="path2542" d="m235.373749,456.342621l28.889587,-16.760834l114.644073,156.75946l-64.849182,37.483337l-78.684479,-177.481964z"/>
  <path fill="#231f20" fill-rule="nonzero" id="path2544" d="m274.990265,428.915802l16.69989,-29.011475l208.078064,96.420471l-37.54425,64.9711l-187.233704,-132.380096z"/>
 </g>
</svg>